<svg width="47" height="41" viewBox="0 0 47 41" fill="none" xmlns="http://www.w3.org/2000/svg">
<path d="M23.2551 6.55834C23.746 6.55834 24.144 6.16028 24.144 5.66943V1.14129C24.144 0.650436 23.7461 0.25238 23.2551 0.25238C22.7642 0.25238 22.3662 0.650347 22.3662 1.14129V5.66943C22.3663 6.16028 22.7643 6.55834 23.2551 6.55834Z" fill="#181A20"/>
<path d="M16.5723 8.0186C16.7413 8.28679 17.0299 8.43363 17.3251 8.43363C17.4871 8.43363 17.6511 8.38937 17.7982 8.29665C18.2135 8.03496 18.3379 7.48605 18.0763 7.07066L15.7078 3.31278C15.446 2.89747 14.8971 2.77294 14.4819 3.03472C14.0666 3.29642 13.9422 3.84532 14.2039 4.26071L16.5723 8.0186Z" fill="#181A20"/>
<path d="M28.7157 8.29691C28.8628 8.38945 29.0267 8.43363 29.1884 8.43363C29.4837 8.43363 29.7725 8.2866 29.9415 8.01824L32.3075 4.26035C32.569 3.84487 32.4443 3.29614 32.0288 3.03445C31.6131 2.77302 31.0646 2.89782 30.803 3.31312L28.437 7.07101C28.1755 7.48658 28.3003 8.0353 28.7157 8.29691Z" fill="#181A20"/>
<path d="M45.7254 21.1798L44.1809 18.4512C43.9389 18.0239 43.3965 17.8736 42.9696 18.1156C42.5423 18.3575 42.3921 18.8998 42.6339 19.3269L44.1777 22.0543C44.255 22.1914 44.235 22.3235 44.2161 22.3901C44.198 22.4542 44.148 22.5725 44.0173 22.6447L41.637 23.9632C41.4255 24.08 41.1495 24.0063 41.0342 23.8029L40.4295 22.7332C40.427 22.7284 40.4242 22.7239 40.4216 22.7192L34.1699 11.6616C34.0926 11.5255 34.1122 11.395 34.1307 11.3294C34.1485 11.2658 34.1981 11.1484 34.3288 11.0761L36.712 9.75731C36.9261 9.63873 37.1954 9.71073 37.3124 9.9182L38.7057 12.3799C38.9476 12.8072 39.4901 12.9573 39.9171 12.7156C40.3444 12.4738 40.4947 11.9314 40.2529 11.5042L38.8602 9.0436C38.2662 7.99059 36.9167 7.61289 35.8516 8.20162L33.4685 9.52041C32.9529 9.8054 32.5803 10.2764 32.4196 10.847C32.2679 11.385 32.3222 11.9466 32.5704 12.4395L31.2577 12.82C30.6985 12.9818 30.3591 13.0695 30.1707 13.0695C30.1699 13.0695 30.1692 13.0695 30.1685 13.0695C30.0388 13.069 29.8974 13.0195 29.4937 12.8666C29.3106 12.7973 29.0826 12.7109 28.8023 12.6131L26.4765 11.8C25.1901 11.3508 24.6099 11.375 23.7694 11.4517L19.8034 11.8066C17.9954 11.9668 16.8428 12.3746 16.2065 13.0819L13.9463 12.4271C14.1895 11.9363 14.2417 11.3801 14.0915 10.847C13.9308 10.2768 13.5585 9.80584 13.0434 9.52086L10.6616 8.20144C9.59564 7.61218 8.24529 7.99006 7.65123 9.0428L0.788451 21.1785C0.494665 21.6958 0.421952 22.2974 0.583912 22.8726C0.744805 23.4438 1.11726 23.9153 1.63194 24.1999L4.0137 25.5192C4.35424 25.7075 4.72421 25.7969 5.08929 25.7969C5.86486 25.7969 6.61884 25.3934 7.0241 24.6779L7.27575 24.2327C7.96252 24.5351 8.53916 24.9743 8.93215 25.4943C8.54832 25.9428 8.30653 26.4964 8.23871 27.0984C8.14911 27.8946 8.374 28.6758 8.87197 29.2985C9.36568 29.9158 10.0717 30.3054 10.8611 30.3971C10.7775 31.1865 11.0033 31.9601 11.4975 32.5758C12.0082 33.2144 12.7301 33.587 13.4853 33.6749C13.4021 34.4632 13.627 35.236 14.1197 35.8521C14.6131 36.4708 15.3193 36.8611 16.1095 36.9528C16.0259 37.7429 16.2517 38.5169 16.7458 39.1327C17.3348 39.8691 18.2043 40.2525 19.0821 40.2524C19.7374 40.2524 20.3974 40.0387 20.9483 39.5987L22.8095 38.1094C22.9574 37.9915 23.0917 37.861 23.2125 37.7206L24.2756 38.5699C24.8254 39.0086 25.4838 39.2218 26.1383 39.2217C27.0165 39.2216 27.8875 38.8378 28.4773 38.1007C28.7881 37.7121 28.9849 37.2685 29.0738 36.8106C29.3847 36.9182 29.7128 36.9737 30.0474 36.9736C30.1596 36.9736 30.2725 36.9674 30.3857 36.9549C31.1822 36.8664 31.8944 36.4748 32.3893 35.8541C32.8843 35.2374 33.1101 34.464 33.0266 33.6746C33.7812 33.5865 34.5035 33.2141 35.0158 32.5757C35.526 31.9378 35.7308 31.1523 35.6506 30.3969C36.4396 30.305 37.1452 29.9156 37.6378 29.2997C38.1361 28.6787 38.362 27.8986 38.2737 27.1031C38.2067 26.4991 37.9647 25.9437 37.5802 25.4939C37.972 24.9741 38.5475 24.5344 39.2347 24.2322L39.4869 24.6783C39.8919 25.3935 40.6455 25.7968 41.4213 25.7968C41.7865 25.7967 42.1568 25.7073 42.4977 25.5188L44.8782 24.2002C45.3927 23.9158 45.7649 23.445 45.9265 22.8748C46.0893 22.3001 46.0181 21.6985 45.7254 21.1798ZM5.47685 23.8024C5.36129 24.0065 5.08511 24.0801 4.87452 23.9636L2.49286 22.6444C2.36281 22.5724 2.31321 22.4546 2.29507 22.3906C2.27649 22.3244 2.25667 22.193 2.33507 22.0552L9.19892 9.91705C9.2775 9.77775 9.42559 9.69971 9.57937 9.69971C9.65422 9.69971 9.73031 9.71811 9.80053 9.75695L12.1816 11.0759C12.1818 11.0761 12.1821 11.0763 12.1824 11.0764C12.3127 11.1485 12.3622 11.2659 12.3802 11.3294C12.3987 11.3951 12.4182 11.5256 12.3401 11.6632L5.47685 23.8024ZM11.9636 28.3768C11.7129 28.5776 11.3964 28.6683 11.0729 28.6323C10.7493 28.5964 10.4608 28.4387 10.2605 28.1882C10.0597 27.9371 9.96916 27.6207 10.0055 27.2973C10.0417 26.9752 10.1995 26.6882 10.4514 26.4877L13.7793 23.8276C14.3016 23.4106 15.0662 23.4964 15.4836 24.0177C15.6843 24.2687 15.7749 24.5846 15.7387 24.907C15.7026 25.2283 15.5447 25.5151 15.2942 25.7144C15.2887 25.7187 15.284 25.7236 15.2786 25.7282L11.9644 28.3762C11.9642 28.3763 11.9639 28.3766 11.9636 28.3768ZM12.8849 31.4643C12.6843 31.2143 12.5936 30.8992 12.6294 30.577C12.6652 30.2546 12.8232 29.9662 13.074 29.7651L13.0743 29.7649C13.0745 29.7648 13.0747 29.7646 13.0749 29.7646C13.0749 29.7646 13.0749 29.7645 13.075 29.7644L17.8686 25.9346C18.3908 25.5175 19.1556 25.6027 19.5729 26.1247C19.7734 26.3753 19.8639 26.6909 19.8281 27.0132C19.7922 27.3359 19.6338 27.6242 19.3823 27.8251L14.59 31.6535C14.0671 32.0708 13.3027 31.9866 12.8849 31.4643ZM16.3213 35.188C15.9977 35.1521 15.7095 34.9942 15.5089 34.7427C15.3084 34.4921 15.2178 34.1765 15.2537 33.8542C15.2896 33.5318 15.4477 33.2437 15.6988 33.0428C15.699 33.0426 15.6993 33.0424 15.6995 33.0422L19.0167 30.3922C19.0206 30.3892 19.0249 30.3866 19.0288 30.3835C19.5497 29.9665 20.3142 30.0514 20.732 30.5721C20.9328 30.8232 21.0233 31.1396 20.987 31.463C20.9507 31.7851 20.7929 32.0721 20.5411 32.2725L17.2133 34.9326C16.9618 35.1334 16.6449 35.2237 16.3213 35.188ZM22.1452 35.9096C22.1092 36.232 21.9513 36.5198 21.6997 36.7207L19.8384 38.2102C19.3155 38.6276 18.551 38.5436 18.1334 38.0212C17.9328 37.7714 17.842 37.456 17.8778 37.1332C17.9137 36.8104 18.0714 36.5225 18.3218 36.3225C18.3221 36.3223 18.3225 36.3221 18.3227 36.3219L20.1836 34.8344C20.1846 34.8336 20.1856 34.833 20.1866 34.8323C20.709 34.4154 21.4736 34.5008 21.891 35.0224C22.0909 35.2725 22.1813 35.5875 22.1452 35.9096ZM36.2504 28.1882C36.05 28.4386 35.7615 28.5964 35.4379 28.6323C35.1146 28.6687 34.7979 28.5777 34.5472 28.3768C34.5471 28.3767 34.5469 28.3766 34.5468 28.3765C34.5467 28.3764 34.5465 28.3763 34.5464 28.3762L32.1678 26.4758C31.7842 26.1693 31.2249 26.2319 30.9186 26.6154C30.6122 26.9989 30.6746 27.5583 31.0581 27.8647L33.4359 29.7645C33.9575 30.1822 34.0435 30.9452 33.6283 31.4642C33.2095 31.9862 32.4449 32.0711 31.923 31.653L29.3429 29.5941C28.9592 29.288 28.3999 29.3509 28.0937 29.7345C27.7875 30.1182 27.8503 30.6775 28.234 30.9837L30.8129 33.0416C31.0642 33.2429 31.2223 33.5314 31.2582 33.8542C31.294 34.1763 31.2034 34.4915 31.0011 34.7435C30.8011 34.9942 30.513 35.152 30.1895 35.188C29.8656 35.2236 29.5487 35.1332 29.2983 34.9333L28.0145 33.9066C28.0123 33.9049 28.0103 33.903 28.0081 33.9012L26.9234 33.0341L26.7207 32.8719C26.3371 32.5653 25.7778 32.6276 25.4713 33.0109C25.433 33.0589 25.4004 33.1095 25.3735 33.1622C25.2448 33.4137 25.2469 33.7088 25.3677 33.9561C25.4237 34.0707 25.5042 34.1753 25.6103 34.2602L26.9011 35.2925C27.4193 35.7109 27.504 36.4714 27.0891 36.9901C26.6716 37.512 25.907 37.5972 25.3849 37.1808L23.9204 36.0108C23.9814 35.25 23.756 34.508 23.2791 33.9118C22.9828 33.5414 22.6152 33.2608 22.2116 33.0726C22.5074 32.6622 22.6952 32.1801 22.7535 31.6617C22.8431 30.8656 22.6182 30.0844 22.1194 29.4606C21.8229 29.0912 21.4558 28.8113 21.0529 28.6235C21.3493 28.2119 21.5371 27.7288 21.5949 27.2096C21.6834 26.4153 21.4583 25.6356 20.9612 25.014C20.1059 23.9447 18.6595 23.6196 17.4556 24.1305C17.3592 23.688 17.1623 23.2706 16.8717 22.9071C15.8425 21.621 13.9578 21.4106 12.6697 22.4384L10.2895 24.3409C9.75129 23.6541 9.01962 23.0844 8.15453 22.6782L13.0506 14.0183L15.6574 14.7736C15.6693 14.9131 15.6919 15.0598 15.7297 15.2152C16.3607 17.8097 18.7496 19.0186 21.9642 18.3709C24.6727 17.8259 25.7878 18.6377 28.0085 20.2549C28.2389 20.4227 28.4783 20.597 28.7289 20.7765C30.326 21.9223 32.0327 23.2691 33.177 24.1819L36.0625 26.4879C36.3131 26.6879 36.4709 26.9759 36.5067 27.299C36.5425 27.6217 36.4519 27.9371 36.2504 28.1882ZM36.2227 24.3404L34.2864 22.7929C33.1263 21.8674 31.3955 20.5018 29.7648 19.3318C29.5176 19.1548 29.282 18.9832 29.0551 18.818C26.7523 17.1411 25.088 15.9295 21.6134 16.6283C20.5499 16.8426 18.0161 17.0932 17.4573 14.7955C17.3785 14.4711 17.4585 14.3597 17.4926 14.3121C17.6114 14.1464 18.0897 13.7431 19.9607 13.5774L23.9309 13.2221C24.5779 13.1631 24.9024 13.1334 25.8898 13.4783L28.2159 14.2915C28.4745 14.3818 28.6813 14.46 28.8638 14.5292C29.9838 14.9535 30.2806 14.9534 31.752 14.5275L33.4669 14.0306L38.3564 22.6787C37.491 23.0847 36.7601 23.6539 36.2227 24.3404Z" fill="#181A20"/>
<path d="M41.4402 16.3056C41.931 16.3056 42.3291 15.9063 42.3291 15.4153C42.3291 14.9244 41.931 14.5264 41.4402 14.5264C40.9493 14.5264 40.5513 14.9245 40.5513 15.4153V15.4178C40.5513 15.9088 40.9493 16.3056 41.4402 16.3056Z" fill="#181A20"/>
</svg>
