<svg width="14" height="12" viewBox="0 0 14 12" fill="none" xmlns="http://www.w3.org/2000/svg">
<path opacity="0.4" d="M13.6666 8.62683C13.6666 10.4868 12.1733 11.9935 10.3133 12.0002H10.3066H3.69992C1.84659 12.0002 0.333252 10.5002 0.333252 8.64016V8.6335C0.333252 8.6335 0.337252 5.68283 0.342585 4.19883C0.343252 3.92016 0.663252 3.76416 0.881252 3.9375C2.46525 5.19416 5.29792 7.4855 5.33325 7.5155C5.80659 7.89483 6.40659 8.10883 7.01992 8.10883C7.63325 8.10883 8.23325 7.89483 8.70659 7.50816C8.74192 7.48483 11.5113 5.26216 13.1193 3.98483C13.3379 3.81083 13.6593 3.96683 13.6599 4.24483C13.6666 5.7175 13.6666 8.62683 13.6666 8.62683" fill="white"/>
<path d="M13.3173 1.78242C12.74 0.694423 11.604 -0.000244141 10.3533 -0.000244141H3.7C2.44934 -0.000244141 1.31334 0.694423 0.736004 1.78242C0.60667 2.02576 0.668004 2.32909 0.883337 2.50109L5.83334 6.46042C6.18 6.74042 6.6 6.87976 7.02 6.87976C7.02267 6.87976 7.02467 6.87976 7.02667 6.87976C7.02867 6.87976 7.03134 6.87976 7.03334 6.87976C7.45334 6.87976 7.87334 6.74042 8.22 6.46042L13.17 2.50109C13.3853 2.32909 13.4467 2.02576 13.3173 1.78242" fill="white"/>
</svg>
