<svg width="25" height="26" viewBox="0 0 25 26" fill="none" xmlns="http://www.w3.org/2000/svg">
<path d="M2.12343 9.80003C1.92967 9.79989 1.73898 9.84856 1.569 9.94157C1.46006 10.0033 1.36281 10.0838 1.28189 10.1793C1.08336 10.386 0.973687 10.6622 0.976366 10.9488V23.8393C0.976074 24.1616 1.1142 24.4686 1.35565 24.6823C1.36389 24.6962 1.37553 24.7079 1.38951 24.7161C1.59458 24.8914 1.85542 24.9877 2.12514 24.9877H22.6037C22.8753 24.9887 23.1383 24.8923 23.3451 24.7161L23.3789 24.6823C23.6186 24.4679 23.7545 24.1608 23.7522 23.8393V10.9488C23.7517 10.6621 23.6447 10.3857 23.4522 10.1733C23.2306 9.9403 22.9249 9.80583 22.6034 9.80003" stroke="white" stroke-width="1.17719"/>
<path d="M23.4774 10.0714L23.9348 10.4418C24.0354 10.3176 24.0811 10.1577 24.0615 9.99902C24.0418 9.84033 23.9584 9.69648 23.8305 9.60054L23.4774 10.0714ZM12.372 19.0215L12.0049 19.4816L12.3731 19.7754L12.7405 19.4805L12.372 19.0215ZM1.28784 10.1772L0.872423 9.76027C0.753589 9.87866 0.690914 10.0421 0.700139 10.2096C0.709365 10.3771 0.789615 10.5327 0.920734 10.6373L1.28784 10.1772ZM11.7441 1.6663L12.0914 2.14148L12.1037 2.13251L12.1155 2.12292L11.7441 1.6663ZM12.9971 1.6663L12.6258 2.12295L12.6409 2.13528L12.6569 2.14657L12.9971 1.6663ZM23.0199 9.701C23.057 9.65517 23.0987 9.62124 23.0759 9.64138C23.074 9.64308 23.0685 9.64781 23.058 9.65668C23.0377 9.67391 23.0067 9.69971 22.9647 9.73438C22.8811 9.80334 22.7599 9.90248 22.6056 10.028C22.2972 10.2789 21.8606 10.6322 21.3383 11.054C20.2939 11.8974 18.9086 13.0127 17.5255 14.1252C16.1425 15.2376 14.762 16.347 13.7272 17.1782C13.2099 17.5938 12.7789 17.9399 12.4773 18.1821C12.3265 18.3032 12.2081 18.3983 12.1273 18.4632C12.0869 18.4956 12.056 18.5204 12.0351 18.5372C12.0247 18.5456 12.0168 18.5519 12.0115 18.5561C12.0089 18.5583 12.0069 18.5599 12.0055 18.5609C12.0049 18.5615 12.0044 18.5619 12.004 18.5622C12.0039 18.5623 12.0037 18.5624 12.0036 18.5625C12.0036 18.5625 12.0035 18.5626 12.372 19.0215C12.7405 19.4805 12.7405 19.4805 12.7406 19.4804C12.7407 19.4804 12.7408 19.4803 12.741 19.4801C12.7413 19.4799 12.7418 19.4795 12.7425 19.4789C12.7438 19.4778 12.7458 19.4762 12.7485 19.4741C12.7538 19.4699 12.7617 19.4635 12.7721 19.4551C12.793 19.4384 12.8239 19.4135 12.8643 19.3811C12.9451 19.3162 13.0636 19.2211 13.2144 19.1C13.516 18.8578 13.947 18.5116 14.4645 18.096C15.4994 17.2646 16.8801 16.1551 18.2633 15.0425C19.6465 13.9299 21.0325 12.8139 22.0779 11.9698C22.6005 11.5479 23.0384 11.1934 23.3485 10.9412C23.5033 10.8152 23.6272 10.7139 23.714 10.6423C23.7572 10.6067 23.7927 10.5771 23.8188 10.555C23.8315 10.5442 23.8443 10.5333 23.8554 10.5235C23.8608 10.5188 23.8684 10.5119 23.8766 10.5042C23.8806 10.5004 23.887 10.4943 23.8945 10.4868C23.8994 10.4818 23.916 10.465 23.9348 10.4418L23.0199 9.701ZM12.7391 18.5615L1.65495 9.71717L0.920734 10.6373L12.0049 19.4816L12.7391 18.5615ZM12.1155 2.12292C12.264 2.00209 12.4771 2.00206 12.6258 2.12295L13.3685 1.20965C12.7872 0.736932 11.954 0.7369 11.3727 1.20967L12.1155 2.12292ZM1.70326 10.5942L4.7635 7.54542L3.93266 6.71147L0.872423 9.76027L1.70326 10.5942ZM7.63838 5.39641L12.0914 2.14148L11.3968 1.19111L6.94371 4.44604L7.63838 5.39641ZM12.6569 2.14657L17.2512 5.4015L17.9317 4.44095L13.3374 1.18602L12.6569 2.14657ZM20.1812 8.33506L23.1242 10.5423L23.8305 9.60054L20.8875 7.39331L20.1812 8.33506Z" fill="white"/>
<path d="M4.21888 4.60121L20.5091 4.82053L20.2615 12.6631L12.3699 19.08L4.21047 12.4979L4.21888 4.60121Z" stroke="white" stroke-width="1.17719"/>
<path d="M5.55737 8.56915H19.1708V9.15978H5.55737V8.56915Z" fill="white"/>
<path d="M5.55762 10.8464H19.171V11.4371H5.55762V10.8464Z" fill="white"/>
<path d="M7.84351 13.1259H16.8845V13.7165H7.84351V13.1259Z" fill="white"/>
</svg>
