<svg width="32" height="46" viewBox="0 0 32 46" fill="none" xmlns="http://www.w3.org/2000/svg">
<path d="M0.407844 4.66059C0.308326 2.62599 1.86192 0.511228 3.96838 0.381302C7.65885 0.356422 11.3521 0.378538 15.0426 0.373009C15.1835 5.94603 15.131 11.5273 15.178 17.1059C15.3715 21.8164 15.2803 26.538 15.2996 31.2541C10.3376 31.2541 5.37546 31.2624 0.416137 31.2513C0.399551 22.3887 0.413373 13.5232 0.407844 4.66059ZM11.2 15.8757C11.2028 17.9269 11.1641 19.9809 11.2249 22.032C11.9575 22.3721 12.784 22.3859 13.5111 22.0293C13.4779 19.9311 13.7129 17.797 13.3922 15.7237C12.6762 15.4832 11.8773 15.5412 11.2 15.8757Z" fill="#181A20"/>
<path d="M16.7954 0.373005C20.5439 0.373005 24.2952 0.370238 28.0465 0.370238C30.2663 0.295599 31.983 2.55688 31.8918 4.66611C31.8807 13.5315 31.9001 22.3942 31.8807 31.2596C26.9518 31.2513 22.0229 31.2624 17.0912 31.2541C17.1575 26.7232 16.9502 22.2007 16.9889 17.6726C16.9696 11.9033 16.9226 6.13953 16.7954 0.373005ZM18.7056 15.7182C18.5453 17.8302 18.5923 19.9615 18.7001 22.0763C19.4271 22.1371 20.1569 22.1399 20.8867 22.115C20.9752 19.9809 21.0968 17.8136 20.837 15.6933C20.1376 15.5578 19.3912 15.5025 18.7056 15.7182Z" fill="#181A20"/>
<path d="M0.413936 33.2278C5.37603 33.2416 10.3381 33.2389 15.3002 33.2278C15.2919 36.4179 15.4467 39.6053 15.4329 42.7981C12.7183 42.8092 10.0064 42.7954 7.29175 42.8037C7.26687 43.7823 7.37192 44.7719 7.20606 45.745C6.69741 45.944 6.14729 45.8943 5.61376 45.8998C5.56677 44.8991 5.64417 43.8929 5.5253 42.9004C4.39467 42.7401 3.12581 42.964 2.17762 42.1734C0.756723 41.2446 0.275716 39.4477 0.402878 37.8388C0.411172 36.2991 0.405643 34.7648 0.413936 33.2278ZM6.48731 34.5547C6.47349 34.9086 6.46243 35.2652 6.45414 35.6218C7.37468 35.6494 8.29523 35.6494 9.21577 35.6439C9.21301 35.2818 9.20748 34.9196 9.19642 34.5603C8.29246 34.5409 7.39127 34.5409 6.48731 34.5547Z" fill="#181A20"/>
<path d="M17.0889 33.2389C22.0205 33.2278 26.955 33.2416 31.8867 33.2306C31.8756 35.1436 31.9116 37.0565 31.8811 38.9695C31.7567 40.8382 30.3773 42.425 28.5749 42.8977C28.5583 43.8514 28.644 44.8162 28.4975 45.7644C27.9889 45.9717 27.436 45.8915 26.9052 45.8556C26.8665 44.8632 26.9273 43.868 26.8444 42.8811C23.6488 42.6931 20.4338 42.859 17.2326 42.7954C17.0999 39.6108 17.1055 36.4235 17.0889 33.2389ZM22.9604 34.552C22.9549 34.9141 22.9549 35.279 22.9604 35.6467C23.9197 35.655 24.8817 35.655 25.8382 35.5693C25.7801 35.2237 25.7055 34.8837 25.6087 34.552C24.7269 34.5409 23.8423 34.5465 22.9604 34.552Z" fill="#181A20"/>
</svg>
