<svg width="28" height="21" viewBox="0 0 28 21" fill="none" xmlns="http://www.w3.org/2000/svg">
<path d="M27.1243 2.8621L26.0662 1.99976L16.2649 9.9877C15.0398 10.9862 12.9793 10.9862 11.7541 9.9877L1.95287 2.04514L0.894775 2.90748L8.19003 8.85305L1.44122 16.438L2.49932 17.3003L9.24812 9.71539L10.696 10.8954C11.5871 11.6216 12.7565 12.0301 13.9817 12.0301C15.2068 12.0301 16.3763 11.6216 17.2673 10.8954L18.7153 9.71539L25.4641 17.3003L26.5222 16.438L19.7733 8.85305L27.1243 2.8621Z" fill="white"/>
<path d="M24.8293 20.2511H3.24455C1.98772 20.2511 0.949463 19.2128 0.949463 17.956V2.54618C0.949463 1.28935 1.98772 0.251099 3.24455 0.251099H24.8293C26.0861 0.251099 27.1243 1.28935 27.1243 2.54618V17.956C27.1243 19.2128 26.0861 20.2511 24.8293 20.2511ZM3.1899 1.72651C2.75274 1.72651 2.42488 2.05437 2.42488 2.49153V17.9014C2.42488 18.3385 2.75274 18.6664 3.1899 18.6664H24.7746C25.2118 18.6664 25.5396 18.3385 25.5396 17.9014V2.49153C25.5396 2.05437 25.2118 1.72651 24.7746 1.72651H3.1899Z" fill="white"/>
</svg>
