<svg width="28" height="23" viewBox="0 0 28 23" fill="none" xmlns="http://www.w3.org/2000/svg">
<path d="M19.6761 6.46379C19.6761 9.57855 15.3428 15.0792 14.0331 15.0792C12.5013 15.0792 8.39575 9.57855 8.39575 6.46379C8.4423 4.99894 9.05694 3.60967 10.1096 2.58994C11.1622 1.5702 12.5703 1 14.0359 1C15.5015 1 16.9096 1.5702 17.9623 2.58994C19.0149 3.60967 19.6295 4.99894 19.6761 6.46379V6.46379Z" stroke="white" stroke-width="1.5" stroke-linecap="round" stroke-linejoin="round"/>
<path d="M14.039 8.67877C15.0453 8.67877 15.8611 7.86295 15.8611 6.8566C15.8611 5.85024 15.0453 5.03442 14.039 5.03442C13.0326 5.03442 12.2168 5.85024 12.2168 6.8566C12.2168 7.86295 13.0326 8.67877 14.039 8.67877Z" stroke="white" stroke-width="1.5" stroke-linecap="round" stroke-linejoin="round"/>
<path d="M17.3074 11.822H22.3639L27.1243 21.5023H1.12427L5.88467 11.822H10.4742" stroke="white" stroke-width="1.5" stroke-linecap="round" stroke-linejoin="round"/>
</svg>
