<svg width="20" height="22" viewBox="0 0 20 22" fill="none" xmlns="http://www.w3.org/2000/svg">
<path d="M16.8905 15.1714C15.7306 14.138 14.5535 13.5121 13.4078 14.5439L12.7237 15.1675C12.2232 15.6202 11.2925 17.7353 7.69444 13.4239C4.0971 9.11785 6.23782 8.44741 6.7391 7.99862L7.42695 7.37422C8.56662 6.34006 8.13653 5.03819 7.31455 3.69807L6.81852 2.88636C5.9928 1.54936 5.09365 0.671302 3.95098 1.7039L3.33357 2.26586C2.82855 2.64908 1.41688 3.89476 1.07446 6.26123C0.662345 9.10068 1.96237 12.3522 4.9408 15.9199C7.91549 19.4891 10.828 21.2819 13.5869 21.2507C15.8797 21.2249 17.2644 19.9434 17.6975 19.4774L18.3171 18.9147C19.4568 17.8828 18.7487 16.8323 17.5881 15.7966L16.8905 15.1714Z" stroke="white" stroke-width="1.5"/>
</svg>
