<svg width="66" height="43" viewBox="0 0 66 43" fill="none" xmlns="http://www.w3.org/2000/svg">
<path d="M57.664 0.715994C51.592 4.148 47.896 8.372 45.916 11.144C41.692 17.612 35.356 30.68 42.88 38.204C47.632 42.956 55.42 42.956 60.172 38.204C65.056 33.32 64.924 25.4 60.04 20.648C57.664 18.404 54.76 17.48 51.724 17.216C49.48 16.952 51.592 7.97599 58.852 2.3L57.664 0.715994ZM22.948 0.715994C16.744 4.148 13.048 8.372 11.2 11.144C6.844 17.612 0.64 30.68 8.032 38.204C12.784 42.956 20.704 42.956 25.456 38.204C30.208 33.32 30.208 25.4 25.324 20.648C22.948 18.404 19.912 17.48 17.008 17.216C14.764 16.952 16.744 7.97599 24.136 2.3L22.948 0.715994Z" fill="#B5B8C0"/>
</svg>
