<svg width="39" height="37" viewBox="0 0 39 37" fill="none" xmlns="http://www.w3.org/2000/svg">
<path d="M18.3281 2.56065C18.6642 1.7246 19.8477 1.7246 20.1838 2.56064L24.1737 12.4865C24.3168 12.8426 24.6511 13.0853 25.0339 13.1112L35.7144 13.8347C36.614 13.8957 36.9798 15.0224 36.2876 15.6001L28.0741 22.4559C27.7792 22.702 27.6514 23.0953 27.7452 23.4678L30.3567 33.8383C30.5768 34.7123 29.6191 35.4085 28.8556 34.9296L19.7873 29.2421C19.4624 29.0383 19.0495 29.0383 18.7246 29.2421L9.65633 34.9296C8.89279 35.4085 7.93518 34.7123 8.15527 33.8383L10.7668 23.4678C10.8606 23.0953 10.7327 22.702 10.4378 22.4559L2.22432 15.6001C1.5321 15.0224 1.89793 13.8957 2.79753 13.8347L13.478 13.1112C13.8609 13.0853 14.1951 12.8426 14.3383 12.4865L18.3281 2.56065Z" stroke="#181A20" stroke-width="3" stroke-linecap="round" stroke-linejoin="round"/>
</svg>
