<svg width="47" height="43" viewBox="0 0 47 43" fill="none" xmlns="http://www.w3.org/2000/svg">
<path d="M3.05648 4.73127C4.01413 4.73127 4.81319 4.07135 5.04033 3.18635H5.76981V24.3395C5.48845 24.3395 5.25825 24.5697 5.25825 24.851C5.25825 25.1334 5.48845 25.3626 5.76981 25.3626V41.573C5.76981 41.8544 6.00002 42.0846 6.28138 42.0846H15.731C16.0031 42.0846 16.2282 41.8718 16.2425 41.5986C16.4779 37.102 15.687 32.681 13.9528 28.5936H33.0648C31.3326 32.681 30.5407 37.103 30.7771 41.5986C30.7924 41.8718 31.0144 42.0846 31.2866 42.0846H40.7362C41.0196 42.0846 41.2477 41.8544 41.2477 41.573V25.3636C41.5311 25.3636 41.7593 25.1344 41.7593 24.8521C41.7593 24.5707 41.5311 24.3405 41.2477 24.3405V3.18737H41.9772C42.2074 4.0734 43.0065 4.73229 43.9611 4.73229C45.0957 4.73229 46.0175 3.80943 46.0175 2.67581C46.0175 1.54218 45.0967 0.619325 43.9611 0.619325C43.0055 0.619325 42.2064 1.27822 41.9772 2.16424H5.04033C4.81217 1.27822 4.01311 0.619325 3.05648 0.619325C1.92388 0.618301 1 1.54014 1 2.67581C1 3.80943 1.92286 4.73127 3.05648 4.73127ZM6.79294 3.18737H22.9195C22.6575 5.11187 22.2401 6.99647 21.662 8.81866C21.6538 8.83503 21.6518 8.85242 21.6457 8.86981C19.7355 14.8684 16.1668 20.2183 11.2609 24.3415H6.79294V3.18737ZM22.9972 8.51684H22.8069C22.8673 8.31528 22.9409 8.11986 22.9972 7.91728V8.51684ZM22.4816 9.53996H22.9972V14.8684H20.2235C21.1269 13.1649 21.8738 11.3795 22.4816 9.53996ZM19.6383 15.8915H22.9972V21.22H15.8773C17.3056 19.5625 18.5548 17.7731 19.6383 15.8915ZM24.0203 15.8915H27.3639C28.4505 17.7771 29.714 19.5605 31.1464 21.22H24.0203V15.8915ZM24.0203 14.8684V9.53996H24.5217C25.1315 11.3816 25.8865 13.1639 26.792 14.8684H24.0203ZM24.0203 8.51684V7.89171C24.0787 8.10145 24.14 8.30914 24.2025 8.51684H24.0203ZM6.79294 41.0625V25.3636H11.1556C14.0275 30.113 15.4404 35.5212 15.2419 41.0625H6.79294ZM12.3383 25.3636H12.988C13.2693 25.3636 13.4995 25.1344 13.4995 24.8521C13.4995 24.5707 13.2693 24.3405 12.988 24.3405H12.7926C13.5394 23.6704 14.2515 22.9695 14.9309 22.2421H22.9982V27.5715H13.4883C13.1333 26.8236 12.7537 26.087 12.3383 25.3636ZM24.0203 27.5715V22.2441H32.0672C32.7466 22.9695 33.4597 23.6714 34.2076 24.3426H34.0316C33.7482 24.3426 33.5201 24.5717 33.5201 24.8541C33.5201 25.1355 33.7482 25.3657 34.0316 25.3657H34.6813C34.2639 26.087 33.8843 26.8247 33.5323 27.5736H24.0203V27.5715ZM40.2246 41.0625H31.7756C31.5782 35.5212 32.9911 30.113 35.864 25.3636H40.2246V41.0625ZM40.2246 24.3405H35.7566C30.8507 20.2173 27.28 14.8623 25.3698 8.86163C25.3657 8.84833 25.3637 8.834 25.3576 8.82173C24.7815 6.99852 24.3621 5.11392 24.1001 3.18839H40.2256V24.3405H40.2246ZM43.9611 1.64143C44.5309 1.64143 44.9944 2.1049 44.9944 2.67478C44.9944 3.24467 44.5309 3.70814 43.9611 3.70814C43.3912 3.70814 42.9277 3.24467 42.9277 2.67478C42.9277 2.10593 43.3922 1.64143 43.9611 1.64143ZM3.05648 1.64143C3.62636 1.64143 4.08984 2.1049 4.08984 2.67478C4.08984 3.24467 3.62636 3.70814 3.05648 3.70814C2.4866 3.70814 2.02313 3.24467 2.02313 2.67581C2.02313 2.10593 2.4866 1.64143 3.05648 1.64143Z" fill="#181A20" stroke="#181A20"/>
</svg>
