<svg width="33" height="47" viewBox="0 0 33 47" fill="none" xmlns="http://www.w3.org/2000/svg">
<path d="M11.1214 0.564205C12.3415 0.125372 13.6504 0.269958 14.9238 0.252201C16.6944 0.269958 18.4674 0.21669 20.2405 0.275032C23.3758 0.457668 25.9327 3.48638 25.8109 6.58358C25.8033 10.7284 25.8008 14.8732 25.8135 19.018C25.8895 21.8286 23.8045 24.5834 21.0243 25.1439C20.0503 25.4154 19.0179 25.1059 18.0514 25.3697C17.9703 26.1079 18.0083 26.8511 18.021 27.5943C20.4942 27.607 22.9674 27.5994 25.4406 27.5994C25.7906 28.1803 26.0164 28.8246 26.2092 29.4765C27.5231 29.3319 28.9538 28.8322 29.4789 27.4929C30.3565 25.1237 29.834 22.5363 29.735 20.0809C29.5727 20.0631 29.2455 20.0327 29.0831 20.0175C28.794 19.3706 28.8447 18.6655 29.1085 18.0212C30.2677 18.0364 31.4371 17.9273 32.5938 18.077C32.9058 18.6426 32.7536 19.3072 32.7282 19.9185C32.5177 19.9642 32.0966 20.0581 31.8836 20.1037C31.9242 22.7748 32.3224 25.4864 31.7364 28.127C31.4701 29.446 30.6102 30.6915 29.3444 31.2191C28.3501 31.6681 27.2416 31.7036 26.1737 31.696C25.9834 32.2059 25.8287 32.7436 25.4964 33.1825C25.1565 33.4412 24.6923 33.3017 24.3093 33.3499C21.9807 33.3423 19.652 33.3347 17.326 33.3524C17.3133 36.5815 17.3184 39.8132 17.3234 43.0448C19.4415 43.2883 21.5012 43.9935 23.2895 45.1654C23.0891 45.3709 23.0003 46.1293 22.6046 45.7006C20.8671 44.5795 18.8581 43.9783 16.8034 43.8312C16.7578 44.8433 16.8897 45.8706 16.6791 46.87C16.3595 46.974 16.1236 46.8751 15.9765 46.5732C15.8852 45.6626 15.9537 44.7443 15.941 43.8312C13.866 43.9174 11.8748 44.5972 10.1296 45.7133C10.051 45.551 9.8937 45.2212 9.81507 45.0589C11.436 43.8591 13.4551 43.2274 15.4539 43.0448C15.459 39.8132 15.459 36.579 15.4539 33.3473C12.7398 33.3245 10.0281 33.3803 7.31651 33.3144C7.04763 32.7969 6.8168 32.2617 6.64431 31.7087C5.064 31.7163 3.2554 31.4931 2.17226 30.207C1.24386 29.0732 0.891262 27.5512 0.921701 26.1079C0.883652 24.1344 0.954674 22.1609 0.982577 20.1874C-0.125921 20.0022 0.115052 18.7923 0.343347 18.011C1.49497 18.0085 2.64659 18.0085 3.80075 18.0186C3.95548 18.564 4.06709 19.1322 3.99353 19.7029C3.7145 19.9363 3.36954 20.0606 3.05246 20.2102C3.07022 22.0112 2.92817 23.8097 2.98904 25.6107C2.99919 26.4326 3.26299 27.2468 3.70689 27.9393C4.33597 28.8829 5.49267 29.337 6.59863 29.3573C6.83454 28.7916 6.8878 28.1118 7.35708 27.6679C9.81505 27.503 12.2908 27.6527 14.7589 27.5943C14.7665 26.8232 14.7665 26.0521 14.7462 25.2809C13.9447 25.2556 13.1456 25.2936 12.3491 25.2403C9.33057 24.9385 6.86245 22.0163 6.99182 19.0003C6.99689 14.8605 6.99689 10.7208 6.99182 6.58104C6.85231 3.9658 8.6736 1.42158 11.1214 0.564205Z" fill="#181A20"/>
</svg>
